<svg id="Capa_1" data-name="Capa 1" xmlns="http://www.w3.org/2000/svg" viewBox="0 0 103.72 71.86"><defs><style>.cls-1{fill:#1d1d1b;stroke:#1d1d1b;stroke-miterlimit:10;}</style></defs><polygon class="cls-1" points="74.51 71.36 0.87 71.36 4.96 64.28 13.14 50.1 17.23 43.02 21.32 50.1 21.32 50.11 17.24 57.19 17.23 57.19 13.14 64.28 62.23 64.28 58.14 57.19 54.05 50.11 54.05 50.1 49.96 43.02 45.87 35.93 41.78 28.85 41.79 28.84 41.77 28.84 37.69 21.76 33.6 14.68 29.51 21.76 21.32 21.76 21.32 21.75 25.41 14.67 29.5 7.58 33.59 0.5 33.6 0.5 37.69 7.58 41.78 14.67 45.87 21.76 45.88 21.76 49.96 28.84 54.06 35.93 58.15 43.02 62.24 50.1 66.33 57.19 70.42 64.27 70.42 64.28 74.51 71.36"/><polygon class="cls-1" points="103.15 7.58 99.06 14.67 94.97 21.76 90.88 28.84 90.87 28.84 90.87 28.85 86.79 35.93 82.7 43.02 82.69 43.02 78.6 35.93 74.51 28.84 70.42 21.76 78.61 21.76 82.69 28.84 82.7 28.84 86.78 21.76 90.88 14.67 94.97 7.58 54.05 7.58 54.05 7.59 58.14 14.67 58.14 14.68 62.23 21.76 62.24 21.76 66.32 28.84 66.33 28.85 70.41 35.93 70.42 35.93 74.51 43.02 78.6 50.1 78.6 50.11 82.69 57.19 82.7 57.2 86.78 64.28 90.87 71.36 82.69 71.36 78.61 64.28 74.51 57.19 70.42 50.1 66.33 43.02 66.33 43.01 62.24 35.93 58.15 28.84 54.06 21.76 54.06 21.75 49.97 14.67 45.88 7.58 45.87 7.58 41.79 0.5 99.06 0.5 103.15 7.58"/></svg>